<svg xmlns="http://www.w3.org/2000/svg" width="28" height="28" viewBox="0 0 28 28"><path d="M17.737,16.263h6.632a.737.737,0,1,1,0,1.474H17.737v6.632a.737.737,0,1,1-1.474,0V17.737H9.632a.737.737,0,1,1,0-1.474h6.632V9.632a.737.737,0,1,1,1.474,0ZM6.684,3a.737.737,0,0,1,0,1.474A2.211,2.211,0,0,0,4.474,6.684.737.737,0,0,1,3,6.684,3.684,3.684,0,0,1,6.684,3ZM27.316,4.474a.737.737,0,0,1,0-1.474A3.684,3.684,0,0,1,31,6.684v.091a.737.737,0,1,1-1.474,0V6.684A2.211,2.211,0,0,0,27.316,4.474ZM3,9.632a.737.737,0,0,1,1.474,0v1.474a.737.737,0,0,1-1.474,0Zm0,4.421a.737.737,0,0,1,1.474,0v1.474a.737.737,0,0,1-1.474,0Zm0,4.421a.737.737,0,1,1,1.474,0v1.474a.737.737,0,0,1-1.474,0Zm0,4.421a.737.737,0,0,1,1.474,0v1.474a.737.737,0,1,1-1.474,0ZM29.526,9.632a.737.737,0,1,1,1.474,0v1.474a.737.737,0,1,1-1.474,0Zm0,4.421a.737.737,0,1,1,1.474,0v1.474a.737.737,0,1,1-1.474,0Zm0,4.421a.737.737,0,1,1,1.474,0v1.474a.737.737,0,1,1-1.474,0Zm0,4.421a.737.737,0,0,1,1.474,0v1.474a.737.737,0,1,1-1.474,0ZM3,27.316a.737.737,0,0,1,1.474,0,2.211,2.211,0,0,0,2.211,2.211.737.737,0,1,1,0,1.474A3.684,3.684,0,0,1,3,27.316ZM9.632,4.474A.737.737,0,0,1,9.632,3h1.474a.737.737,0,0,1,0,1.474Zm4.421,0a.737.737,0,1,1,0-1.474h1.474a.737.737,0,0,1,0,1.474Zm4.421,0a.737.737,0,1,1,0-1.474h1.474a.737.737,0,0,1,0,1.474Zm4.421,0a.737.737,0,0,1,0-1.474h1.474a.737.737,0,1,1,0,1.474ZM9.632,31a.737.737,0,1,1,0-1.474h1.474a.737.737,0,1,1,0,1.474Zm4.421,0a.737.737,0,1,1,0-1.474h1.474a.737.737,0,1,1,0,1.474Zm4.421,0a.737.737,0,1,1,0-1.474h1.474a.737.737,0,1,1,0,1.474Zm4.421,0a.737.737,0,0,1,0-1.474h1.474a.737.737,0,1,1,0,1.474Zm4.421,0a.737.737,0,0,1,0-1.474,2.211,2.211,0,0,0,2.211-2.211.737.737,0,0,1,1.474,0A3.684,3.684,0,0,1,27.316,31Z" transform="translate(-3 -3)"/></svg>