<svg xmlns="http://www.w3.org/2000/svg" xmlns:xlink="http://www.w3.org/1999/xlink" width="767" height="845" viewBox="0 0 767 845"><defs><style>.a{fill:#fff;stroke:#707070;}.b{fill:#163a45;}.c{clip-path:url(#a);}.d{fill:#24505d;fill-rule:evenodd;}</style><clipPath id="a"><path class="a" d="M0,0H747a20,20,0,0,1,20,20V825a20,20,0,0,1-20,20H0a0,0,0,0,1,0,0V0A0,0,0,0,1,0,0Z" transform="translate(13045 -964)"/></clipPath></defs><g transform="translate(-960 -118)"><path class="b" d="M0,0H747a20,20,0,0,1,20,20V825a20,20,0,0,1-20,20H0a0,0,0,0,1,0,0V0A0,0,0,0,1,0,0Z" transform="translate(960 118)"/><g class="c" transform="translate(-12085 1082)"><path class="d" d="M796.813,220.2c-20.861,3.651-40.416-11.018-42.19-31.65L717.5-243a12.31,12.31,0,0,0-13.387-11.051,12.2,12.2,0,0,0-11.31,13.079l37.885,440.382c1.555,18.075-11.225,34.337-29.5,37.536l-217,38a36.269,36.269,0,0,1-37.5-17.02L219.465-126.593c-9.934-16.808-31.932-22.568-49.137-12.863l-4.794,2.7a34.708,34.708,0,0,0-13.166,48.008l200.266,338.9c12.461,21.09-.273,47.87-24.807,52.166L-26,364.274a18.4,18.4,0,0,0-15.183,21.311,18.763,18.763,0,0,0,21.814,14.836l392.728-68.764a36.275,36.275,0,0,1,37.5,17.022l59.841,101.266a34.75,34.75,0,0,1-14.905,48.928l-351.8,174A20.117,20.117,0,0,0,94.825,700.2a21.047,21.047,0,0,0,27.97,8.957L480.165,532.4c17.039-8.428,37.85-2.377,47.4,13.784l124.2,210.173c9.933,16.809,31.932,22.568,49.137,12.864l4.794-2.7a34.707,34.707,0,0,0,13.166-48.007L598.772,515.289a34.748,34.748,0,0,1,14.9-48.927l86.641-42.854c22.762-11.259,49.954,3.571,52.09,28.411l28,325.427a12.394,12.394,0,0,0,24.7-2.028L773.825,411.756a34.989,34.989,0,0,1,19.6-34.3l247.523-122.429a20.116,20.116,0,0,0,9.168-27.327,21.047,21.047,0,0,0-27.97-8.958l-208.3,103.03c-21.9,10.83-48.052-3.435-50.109-27.329-1.5-17.387,10.8-33.03,28.376-36.107l205.46-35.975a18.4,18.4,0,0,0,15.183-21.313,18.762,18.762,0,0,0-21.814-14.834ZM739.9,306.514c-1.774-20.633-21.329-35.3-42.189-31.65l-168,29.415c-24.533,4.3-37.268,31.077-24.807,52.166l37,62.607c9.549,16.159,30.359,22.211,47.4,13.782l133.249-65.906a34.991,34.991,0,0,0,19.6-34.3Z" transform="translate(12868.803 -846.308)"/></g></g></svg>