<svg xmlns="http://www.w3.org/2000/svg" width="40.724" height="40.724" viewBox="0 0 40.724 40.724"><defs><style>.a{fill:#fff;}</style></defs><path class="a" d="M3,8.656A5.656,5.656,0,0,1,8.656,3h6.787A5.656,5.656,0,0,1,21.1,8.656v6.787A5.656,5.656,0,0,1,15.443,21.1H8.656A5.656,5.656,0,0,1,3,15.443Zm2.262,0v6.787a3.394,3.394,0,0,0,3.394,3.394h6.787a3.394,3.394,0,0,0,3.394-3.394V8.656a3.394,3.394,0,0,0-3.394-3.394H8.656A3.394,3.394,0,0,0,5.262,8.656Zm20.362,0A5.656,5.656,0,0,1,31.28,3h6.787a5.656,5.656,0,0,1,5.656,5.656v6.787A5.656,5.656,0,0,1,38.068,21.1H31.28a5.656,5.656,0,0,1-5.656-5.656Zm2.262,0v6.787a3.394,3.394,0,0,0,3.394,3.394h6.787a3.394,3.394,0,0,0,3.394-3.394V8.656a3.394,3.394,0,0,0-3.394-3.394H31.28A3.394,3.394,0,0,0,27.887,8.656ZM3,31.28a5.656,5.656,0,0,1,5.656-5.656h6.787A5.656,5.656,0,0,1,21.1,31.28v6.787a5.656,5.656,0,0,1-5.656,5.656H8.656A5.656,5.656,0,0,1,3,38.068Zm2.262,0v6.787a3.394,3.394,0,0,0,3.394,3.394h6.787a3.394,3.394,0,0,0,3.394-3.394V31.28a3.394,3.394,0,0,0-3.394-3.394H8.656A3.394,3.394,0,0,0,5.262,31.28Zm20.362,0a5.656,5.656,0,0,1,5.656-5.656h6.787a5.656,5.656,0,0,1,5.656,5.656v6.787a5.656,5.656,0,0,1-5.656,5.656H31.28a5.656,5.656,0,0,1-5.656-5.656Zm2.262,0v6.787a3.394,3.394,0,0,0,3.394,3.394h6.787a3.394,3.394,0,0,0,3.394-3.394V31.28a3.394,3.394,0,0,0-3.394-3.394H31.28A3.394,3.394,0,0,0,27.887,31.28Z" transform="translate(-3 -3)"/></svg>