<svg xmlns="http://www.w3.org/2000/svg" width="31.362" height="31.362" viewBox="0 0 31.362 31.362"><defs><style>.a{fill:#fff;}</style></defs><path class="a" d="M11.2,16.582,4.844,19.855a2.352,2.352,0,0,0-1.276,2.091V23.17A2.352,2.352,0,0,0,5.92,25.522a.784.784,0,0,1,0,1.568A3.92,3.92,0,0,1,2,23.17V21.946a3.92,3.92,0,0,1,2.126-3.486l5.265-2.71A7.841,7.841,0,1,1,21.034,5.438a.784.784,0,0,1-1.3.881,6.273,6.273,0,1,0-8.453,8.88.784.784,0,0,1-.081,1.382Zm6.418,6.693-6.4,2.91a2.352,2.352,0,0,0-1.379,2.141v1.117a2.352,2.352,0,0,0,2.352,2.352H29.442a2.352,2.352,0,0,0,2.352-2.352V28.325a2.352,2.352,0,0,0-1.379-2.141l-6.4-2.91a7.863,7.863,0,0,1-6.394,0Zm-1.629-.982a7.841,7.841,0,1,1,9.653,0l5.42,2.464a3.92,3.92,0,0,1,2.3,3.569v1.117a3.92,3.92,0,0,1-3.92,3.92H12.193a3.92,3.92,0,0,1-3.92-3.92V28.325a3.92,3.92,0,0,1,2.3-3.569l5.42-2.464Zm4.826.093a6.272,6.272,0,1,0-6.272-6.272A6.272,6.272,0,0,0,20.817,22.385Z" transform="translate(-2 -2)"/></svg>