<svg xmlns="http://www.w3.org/2000/svg" width="443.338" height="234.51" viewBox="0 0 443.338 234.51"><defs><style>.a{fill:#144d67;}.b,.c,.d,.e{fill:#fff;font-family:Poppins-Medium, Poppins;font-weight:500;opacity:0.074;}.b{font-size:77px;}.c{font-size:58px;}.d{font-size:53px;}.e{font-size:73px;}.f,.g{fill:none;stroke:#fff;}.f{stroke-dasharray:6;}.g{stroke-dasharray:5;}</style></defs><g transform="translate(-1420.261 -48.49)"><path class="a" d="M444.35,293.785a5.625,5.625,0,0,1,5.625-5.625v-5.972a5.625,5.625,0,0,1,0-11.25v-6.25h-400v6.25a5.625,5.625,0,1,1,0,11.25v5.972a5.625,5.625,0,1,1,0,11.25v5.972a5.625,5.625,0,1,1,0,11.25V322.6a5.625,5.625,0,1,1,0,11.25v5.972a5.625,5.625,0,1,1,0,11.25v5.973a5.625,5.625,0,1,1,0,11.25v5.972a5.625,5.625,0,1,1,0,11.25v5.972a5.625,5.625,0,1,1,0,11.25v5.972a5.625,5.625,0,1,1,0,11.25v5.973a5.625,5.625,0,1,1,0,11.25v5h400v-5a5.625,5.625,0,0,1,0-11.25v-5.973a5.625,5.625,0,0,1,0-11.25v-5.972a5.625,5.625,0,0,1,0-11.25v-5.972a5.625,5.625,0,0,1,0-11.25V368.3a5.625,5.625,0,0,1,0-11.25v-5.973a5.625,5.625,0,0,1,0-11.25v-5.972a5.625,5.625,0,0,1,0-11.25v-5.972a5.625,5.625,0,0,1,0-11.25V299.41A5.626,5.626,0,0,1,444.35,293.785Z" transform="translate(1383.025 -192.375)"/><text class="b" transform="translate(1720 260.616) rotate(-34)"><tspan x="0" y="0">20%</tspan></text><text class="c" transform="matrix(0.999, -0.035, 0.035, 0.999, 1660, 130)"><tspan x="0" y="0">20%</tspan></text><text class="d" transform="translate(1484.951 253.834) rotate(-13)"><tspan x="0" y="0">20%</tspan></text><text class="e" transform="matrix(0.891, -0.454, 0.454, 0.891, 1455.219, 183.834)"><tspan x="0" y="0">20%</tspan></text><line class="f" y2="177" transform="translate(1452.5 72.5)"/><line class="g" y2="177" transform="translate(1814 72.313)"/></g></svg>